<svg width="13" height="18" viewBox="0 0 13 18" fill="none" xmlns="http://www.w3.org/2000/svg">
<path d="M5.39722 0.841858L5.39722 8.87127C5.66435 9.23156 5.93148 9.59185 6.19861 9.95215C6.46574 9.59185 6.73287 9.23156 7 8.87127L7 0.841858L5.39722 0.841858Z" fill="#1E2D24"/>
<path d="M6.19678 17.1582C7.85307 14.5847 9.88337 12.1655 12.3945 10.3126L12.3945 8.35672C10.0437 10.1067 7.9065 12.1655 6.19678 14.5332C4.54048 12.1655 2.40333 10.1067 -0.000975278 8.35672L-0.000975564 10.3126C2.45675 12.217 4.59391 14.5847 6.19678 17.1582Z" fill="#1E2D24"/>
<path d="M6.19678 12.5259C7.85307 9.95235 9.88337 7.53324 12.3945 5.68031L12.3945 3.72443C10.3642 5.21707 8.54765 6.9156 6.99821 8.87147L6.99821 10.3126L5.39534 10.3126L5.39534 8.87147C3.84591 6.96707 2.02932 5.26854 -0.000975286 3.7759L-0.000975571 5.73178C2.45675 7.58471 4.59391 9.95235 6.19678 12.5259Z" fill="#1E2D24"/>
<path d="M5.39722 8.87131L5.39722 10.3125L7 10.3125L7 8.87131C6.73287 9.23161 6.46574 9.5919 6.19861 9.9522C5.93148 9.54043 5.66435 9.18013 5.39722 8.87131Z" fill="#1E2D24"/>
</svg>
