<svg width="33" height="17" viewBox="0 0 33 17" fill="none" xmlns="http://www.w3.org/2000/svg">
<g clip-path="url(#clip0)">
<path d="M27.1545 7.33562L-3.07054e-07 7.33562L0 8.5L29 8.5C28.3409 8.03425 27.6818 7.68493 27.1545 7.33562Z" fill="white"/>
<path d="M-3.07053e-07 8.50005L0 9.66443L27.1545 9.66443C27.6818 9.19868 28.3409 8.84936 29 8.50005L-3.07053e-07 8.50005Z" fill="white"/>
<path d="M26.8231 7.33562L28.9047 7.33562L28.9047 8.5L32.2585 8.5C28.5578 6.17124 25.0884 3.37673 22.3129 2.28672e-05L19.4218 2.28882e-05C21.619 2.6781 24.0476 5.1233 26.8231 7.33562Z" fill="white"/>
<path d="M32.2585 8.50002L28.9047 8.50002L28.9047 9.6644L26.7075 9.6644C23.932 11.7603 21.619 14.2055 19.4218 17L22.3129 17C25.2041 13.6233 28.5578 10.7123 32.2585 8.50002Z" fill="white"/>
<path d="M26.8231 7.33562C27.2857 7.68493 27.8639 8.03425 28.4422 8.5L29.0204 8.5L29.0204 7.33562L26.8231 7.33562Z" fill="white"/>
<path d="M26.8231 9.66443L29.0204 9.66443L29.0204 8.50005L28.4422 8.50005C27.8639 8.84936 27.2857 9.19868 26.8231 9.66443Z" fill="white"/>
</g>
<defs>
<clipPath id="clip0">
<rect width="33" height="17" fill="white"/>
</clipPath>
</defs>
</svg>
