<svg width="16" height="20" viewBox="0 0 16 20" fill="none" xmlns="http://www.w3.org/2000/svg">
<path d="M2 20H14C14.5304 20 15.0391 19.7893 15.4142 19.4142C15.7893 19.0391 16 18.5304 16 18V6L10 0H2C1.46957 0 0.960859 0.210714 0.585786 0.585786C0.210714 0.960859 0 1.46957 0 2V18C0 18.5304 0.210714 19.0391 0.585786 19.4142C0.960859 19.7893 1.46957 20 2 20ZM9 2L14 7H9V2ZM4.5 9C4.69705 9.00007 4.89215 9.03894 5.07418 9.11441C5.2562 9.18988 5.42158 9.30046 5.56087 9.43984C5.70016 9.57922 5.81063 9.74467 5.88597 9.92675C5.96132 10.1088 6.00007 10.304 6 10.501C5.99993 10.698 5.96106 10.8932 5.88559 11.0752C5.81012 11.2572 5.69954 11.4226 5.56016 11.5619C5.42078 11.7012 5.25533 11.8116 5.07325 11.887C4.89118 11.9623 4.69605 12.0011 4.499 12.001C4.10104 12.0009 3.71944 11.8427 3.43813 11.5612C3.15683 11.2797 2.99887 10.898 2.999 10.5C2.99913 10.102 3.15735 9.72044 3.43884 9.43913C3.72033 9.15783 4.10204 8.99987 4.5 9ZM5 14L6.597 15.363L9 11L13 17H3L5 14Z" fill="#0E6322"/>
</svg>
