<svg width="17" height="37" viewBox="0 0 17 37" fill="none" xmlns="http://www.w3.org/2000/svg">
<path d="M9.59872 23.8231V0H8.44226V25.4422C8.90485 24.8639 9.25178 24.2857 9.59872 23.8231Z" fill="#E2AC33"/>
<path d="M8.44223 0H7.28577V23.8231C7.74835 24.2857 8.09529 24.8639 8.44223 25.4422V0Z" fill="#E2AC33"/>
<path d="M8.44218 36.1973V32.381C6.12925 28.9116 3.2381 26.0204 0 23.4762V26.3674C3.35374 29.1429 6.2449 32.4966 8.44218 36.1973Z" fill="#E2AC33"/>
<path d="M8.44226 32.381V36.3129C10.7552 32.6123 13.5307 29.1429 16.8844 26.3674V23.4762C13.762 25.9048 10.7552 28.9116 8.44226 32.381Z" fill="#E2AC33"/>
<path d="M9.59872 23.8231V25.9047H8.44226V29.2585C10.7552 25.5578 13.5307 22.0884 16.8844 19.3129V16.4218C14.2246 18.619 11.796 21.0476 9.59872 23.8231Z" fill="#E2AC33"/>
<path d="M8.44218 29.2585V25.9047H7.28571V23.7075C5.20408 20.932 2.77551 18.619 0 16.4218V19.3129C3.35374 22.2041 6.2449 25.5578 8.44218 29.2585Z" fill="#E2AC33"/>
<path d="M9.59872 23.8231C9.25178 24.2857 8.90485 24.8639 8.44226 25.4422V26.0204H9.59872V23.8231Z" fill="#E2AC33"/>
<path d="M7.28577 23.8231V26.0204H8.44223V25.4422C8.09529 24.8639 7.74835 24.2857 7.28577 23.8231Z" fill="#E2AC33"/>
</svg>
