<svg width="1718" height="2019" viewBox="0 0 1718 2019" fill="none" xmlns="http://www.w3.org/2000/svg">
<g clip-path="url(#clip0_2021:18422)">
<path d="M698.242 1126.14C689.47 1125.94 681.282 1122.24 675.239 1116.39C669.391 1110.34 665.881 1102.15 666.076 1093.18C666.271 1084.02 669.975 1076.02 675.434 1070.56C680.697 1065.1 687.91 1062.37 695.513 1063.54C702.921 1064.71 709.939 1069.39 715.008 1075.83C720.271 1082.07 724.17 1090.26 725.145 1098.45C726.12 1106.64 723.975 1113.66 719.296 1118.73C714.423 1123.41 707.015 1126.53 698.242 1126.14ZM669.78 988.082C683.816 985.937 699.412 989.837 715.398 1000.37C731.188 1010.51 745.809 1025.33 756.531 1038.78C772.711 1058.28 785.188 1080.7 787.722 1106.25C791.621 1140.37 783.628 1150.51 758.48 1164.94C745.029 1172.74 725.34 1187.56 705.455 1191.85C679.528 1197.7 657.304 1189.31 640.929 1171.96C627.282 1156.94 618.51 1134.33 614.221 1110.93C611.492 1094.35 608.568 1065.69 614.611 1051.45C626.892 1022.01 641.903 992.762 669.78 988.082ZM664.517 905.601C687.131 905.016 712.473 916.716 736.842 936.215C761.21 955.324 783.628 980.088 800.199 1000.56C827.296 1033.32 848.545 1070.17 852.249 1112.88C858.292 1173.13 845.231 1187.36 798.444 1211.15C776.61 1222.46 743.86 1248.98 712.473 1257.95C669.196 1270.43 633.131 1256.98 606.423 1227.92C582.25 1201.01 567.044 1159.87 560.221 1117.36C555.932 1088.11 550.669 1034.69 562.756 1010.51C587.124 960.004 613.051 907.356 664.517 905.601ZM660.228 822.34C692.004 822.925 726.899 842.424 760.04 870.893C793.181 898.581 823.787 933.485 846.011 960.589C884.22 1006.41 914.241 1057.5 918.725 1117.95C926.328 1204.91 908.003 1223.44 839.188 1256.58C808.971 1271.4 762.574 1310.01 719.881 1323.47C659.253 1342.97 609.347 1324.05 572.113 1283.49C537.608 1244.5 515.774 1184.83 506.416 1123.21C500.373 1081.09 492.965 1003.29 511.095 968.973C547.745 897.996 584.784 821.365 660.228 822.34ZM656.914 738.299C697.852 740.054 742.885 766.962 785.188 804.011C827.296 840.279 866.09 884.932 894.162 918.86C943.678 977.748 982.277 1043.07 987.541 1121.46C996.313 1235.53 972.53 1258.53 880.906 1301.43C842.112 1319.96 782.069 1371.04 727.484 1389.18C649.506 1415.5 585.564 1391.32 537.998 1339.26C493.16 1288.37 464.893 1210.18 453.001 1129.26C445.399 1074.46 435.456 972.093 459.63 927.635C508.366 835.989 556.712 734.789 656.914 738.299ZM654.575 653.478C705.065 656.012 760.235 690.136 811.895 735.764C863.166 780.417 910.343 834.624 944.263 875.377C1005.09 947.134 1052.46 1026.89 1058.11 1123.41C1067.47 1264.77 1038.23 1292.66 923.209 1345.89C875.447 1368.12 801.563 1431.88 734.892 1454.89C639.174 1488.43 561.196 1458.99 503.687 1395.03C448.518 1332.05 413.818 1235.33 399.392 1135.3C390.034 1067.64 377.753 941.089 407.774 886.297C469.182 773.592 529.03 648.018 654.575 653.478ZM653.015 568.072C713.448 571.191 779.145 612.529 840.162 666.347C900.79 719.19 956.35 782.952 996.313 830.335C1068.64 914.766 1124.78 1008.95 1130.24 1123.8C1139.79 1293.05 1104.7 1325.81 965.902 1389.57C909.173 1415.89 820.863 1492.33 742.3 1520.21C628.842 1560.97 537.023 1526.06 469.182 1450.41C403.68 1375.53 362.547 1259.9 345.587 1140.96C334.67 1060.62 319.659 909.696 355.919 844.764C429.998 711.39 501.543 561.052 653.015 568.072ZM652.43 481.885C723 485.395 799.419 533.558 870.184 595.565C940.364 656.403 1004.7 729.719 1050.7 783.732C1134.72 880.837 1199.45 989.252 1204.9 1122.63C1214.07 1320.15 1172.93 1357.79 1009.96 1432.47C944.263 1462.89 841.137 1552.39 750.488 1585.34C618.9 1633.5 513.24 1593.33 435.456 1505.78C359.623 1418.82 312.251 1284.66 292.757 1146.41C280.085 1053.4 262.345 878.302 304.843 803.231C391.009 648.993 474.445 473.891 652.43 481.885ZM652.82 394.919C733.722 398.624 821.253 453.417 901.96 523.419C981.887 592.25 1054.99 674.927 1107.24 735.374C1203.15 844.959 1276.45 967.803 1281.32 1120.09C1289.51 1346.28 1242.33 1389.18 1054.6 1475.17C979.548 1509.68 861.606 1612.83 758.48 1650.66C608.958 1706.62 489.261 1660.8 401.341 1561.36C315.37 1462.3 261.565 1309.43 239.342 1152.07C224.916 1046.38 204.252 847.104 252.988 761.698C352.215 586.401 447.543 386.34 652.82 394.919ZM653.99 307.368C745.614 311.073 844.256 372.106 935.101 450.102C1024.97 526.538 1106.85 618.574 1165.53 685.456C1273.33 807.326 1355.4 944.404 1359.3 1115.8C1366.12 1371.04 1312.51 1419.4 1099.44 1517.09C1015.03 1556.09 881.686 1672.7 766.083 1715.79C598.236 1779.16 464.698 1728.07 366.836 1616.73C270.533 1505.59 210.49 1334 185.732 1157.53C169.551 1039.17 145.963 815.905 200.938 720.165C313.616 523.809 421.031 298.594 653.99 307.368ZM656.329 218.843C758.675 222.157 869.014 289.624 970.191 375.225C1070.2 459.267 1161.24 560.272 1226.15 633.589C1346.04 767.937 1436.89 919.445 1439.62 1109.95C1444.49 1394.83 1384.64 1448.85 1145.64 1558.43C1051.68 1602.11 902.74 1732.36 774.466 1780.92C588.098 1852.09 440.72 1795.54 333.11 1672.31C226.67 1549.07 160.389 1358.76 132.902 1163.18C114.967 1032.15 88.4542 784.902 149.667 679.021C275.017 461.021 394.713 210.653 656.329 218.843ZM659.448 129.732C773.101 132.656 895.137 206.168 1007.04 298.984C1117.37 390.435 1217.58 500.605 1288.93 579.966C1420.9 726.404 1520.52 892.342 1521.69 1102.54C1524.03 1417.26 1457.55 1476.92 1192.23 1598.99C1088.52 1647.15 923.599 1791.64 782.654 1845.65C577.766 1924.62 416.547 1862.81 298.995 1727.49C182.418 1592.36 109.703 1383.33 79.8767 1168.64C59.9923 1025.13 30.3606 753.898 98.0066 637.488C236.612 398.039 368.785 122.517 659.448 129.732ZM663.542 39.8407C788.502 41.9856 922.819 121.347 1045.24 221.572C1166.11 320.433 1275.67 439.377 1353.45 525.174C1497.91 683.701 1606.1 863.873 1605.52 1093.96C1604.93 1438.9 1531.63 1504.22 1239.6 1639.35C1125.95 1692.2 944.848 1851.11 791.036 1910.59C567.239 1997.55 392.374 1930.28 265.074 1782.87C138.36 1635.45 59.4074 1407.7 26.8516 1173.91C5.2127 1017.72 -27.733 722.699 46.1512 595.955C198.403 335.057 343.052 33.796 663.542 39.8407ZM799.614 1975.32C556.907 2070.48 368.2 1997.75 231.349 1838.24C94.4975 1678.55 9.5015 1432.08 -25.7836 1179.17C-49.3719 1010.51 -85.6317 691.696 -5.31433 554.617C160.194 272.075 317.515 -54.5349 668.416 -50.8301C939.779 -47.9052 1250.13 283.19 1420.32 468.431C1577.25 639.048 1694.22 833.454 1691.68 1083.63C1687.78 1459.38 1607.27 1530.55 1287.95 1679.13C1163.97 1736.46 966.292 1910 799.614 1975.32Z" stroke="#80B852" stroke-width="1.218" stroke-miterlimit="10"/>
</g>
<defs>
<clipPath id="clip0_2021:18422">
<rect width="1774" height="2071" fill="white" transform="translate(-56 -52)"/>
</clipPath>
</defs>
</svg>
