<svg width="18" height="13" viewBox="0 0 18 13" fill="none" xmlns="http://www.w3.org/2000/svg">
<path fill-rule="evenodd" clip-rule="evenodd" d="M16.0428 0.385412C16.8138 0.592941 17.4217 1.20071 17.6292 1.97153C18.0147 3.37976 17.9999 6.31482 17.9999 6.31482C17.9999 6.31482 17.9999 9.23506 17.6292 10.6433C17.4217 11.4141 16.8138 12.0219 16.0428 12.2294C14.6342 12.6 8.99996 12.6 8.99996 12.6C8.99996 12.6 3.38055 12.6 1.95716 12.2146C1.18616 12.0071 0.578251 11.3993 0.370674 10.6285C0 9.23506 0 6.3 0 6.3C0 6.3 0 3.37976 0.370674 1.97153C0.578251 1.20071 1.20098 0.578118 1.95716 0.370588C3.36572 0 8.99996 0 8.99996 0C8.99996 0 14.6342 0 16.0428 0.385412ZM7.20587 3.60224L11.8912 6.30013L7.20587 8.99801V3.60224Z" fill="#0E6322"/>
</svg>
